<svg xmlns="http://www.w3.org/2000/svg" width="22" height="21" viewBox="0 0 22 21" stroke="#4f91ff"><g fill="none" stroke-linejoin="round" stroke-linecap="round" stroke-width="2"><path d="m13 16l0-1"/><path d="m5 11l0-1"/><path d="m5 16l0-1"/><path d="m17 16l0-1"/><path d="m13 11l0-1"/><path d="m17 11l0-1"/><path d="m13 6l0-1"/><path d="m17 6l0-1"/><path d="M9.47,1H20.53a.47.47,0,0,1,.47.47V19.53a.47.47,0,0,1-.47.47H9V1.47A.47.47,0,0,1,9.47,1Z"/><path d="M1.47,6H9V20H1.47A.47.47,0,0,1,1,19.53V6.47A.47.47,0,0,1,1.47,6Z"/></g></svg>
